#N canvas 9 209 757 663 16;
#X obj 118 55 comport 2 57600;
#X msg 152 11 devices;
#X floatatom 129 128 5 0 0 0 - - -;
#X obj 209 129 print;
#X obj 16 246 & 1;
#X obj 16 282 == 1;
#X obj 13 324 tgl 15 0 empty empty empty 17 7 0 10 -262144 -1 -1 0
1;
#X obj 82 246 & 2;
#X obj 84 280 == 2;
#X obj 82 325 tgl 15 0 empty empty empty 17 7 0 10 -262144 -1 -1 0
1;
#X obj 150 239 & 4;
#X obj 151 283 == 4;
#X obj 151 326 tgl 15 0 empty empty empty 17 7 0 10 -262144 -1 -1 0
1;
#X obj 221 325 tgl 15 0 empty empty empty 17 7 0 10 -262144 -1 -1 0
1;
#X obj 218 238 & 8;
#X obj 219 282 == 8;
#X obj 276 321 tgl 15 0 empty empty empty 17 7 0 10 -262144 -1 -1 0
1;
#X obj 342 325 tgl 15 0 empty empty empty 17 7 0 10 -262144 -1 -1 0
1;
#X obj 402 326 tgl 15 0 empty empty empty 17 7 0 10 -262144 -1 -1 0
1;
#X obj 460 328 tgl 15 0 empty empty empty 17 7 0 10 -262144 -1 -1 0
1;
#X obj 274 237 & 16;
#X obj 339 238 & 32;
#X obj 399 239 & 64;
#X obj 457 241 & 128;
#X obj 275 281 == 16;
#X obj 340 282 == 32;
#X obj 400 283 == 64;
#X obj 458 285 == 128;
#X obj 98 629 dac~;
#X obj 47 537 *~;
#X obj 99 593 *~ 0.1;
#X obj 12 434 osc~ 300;
#X obj 111 435 osc~ 400;
#X obj 203 436 osc~ 500;
#X obj 298 438 osc~ 600;
#X obj 388 439 osc~ 700;
#X obj 476 440 osc~ 800;
#X obj 564 440 osc~ 900;
#X obj 652 441 osc~ 1000;
#X obj 119 536 *~;
#X obj 205 526 *~;
#X obj 302 520 *~;
#X obj 389 520 *~;
#X obj 476 522 *~;
#X obj 565 521 *~;
#X obj 651 521 *~;
#X connect 0 0 3 0;
#X connect 0 0 2 0;
#X connect 1 0 0 0;
#X connect 2 0 4 0;
#X connect 2 0 7 0;
#X connect 2 0 10 0;
#X connect 2 0 14 0;
#X connect 2 0 20 0;
#X connect 2 0 21 0;
#X connect 2 0 22 0;
#X connect 2 0 23 0;
#X connect 4 0 5 0;
#X connect 5 0 6 0;
#X connect 6 0 29 1;
#X connect 7 0 8 0;
#X connect 8 0 9 0;
#X connect 9 0 39 1;
#X connect 10 0 11 0;
#X connect 11 0 12 0;
#X connect 12 0 40 1;
#X connect 13 0 41 1;
#X connect 14 0 15 0;
#X connect 15 0 13 0;
#X connect 16 0 42 1;
#X connect 17 0 43 1;
#X connect 18 0 44 1;
#X connect 19 0 45 1;
#X connect 20 0 24 0;
#X connect 21 0 25 0;
#X connect 22 0 26 0;
#X connect 23 0 27 0;
#X connect 24 0 16 0;
#X connect 25 0 17 0;
#X connect 26 0 18 0;
#X connect 27 0 19 0;
#X connect 29 0 30 0;
#X connect 30 0 28 0;
#X connect 30 0 28 1;
#X connect 31 0 29 0;
#X connect 32 0 39 0;
#X connect 33 0 40 0;
#X connect 34 0 41 0;
#X connect 35 0 42 0;
#X connect 36 0 43 0;
#X connect 37 0 44 0;
#X connect 38 0 45 0;
#X connect 39 0 30 0;
#X connect 40 0 30 0;
#X connect 41 0 30 0;
#X connect 42 0 30 0;
#X connect 43 0 30 0;
#X connect 44 0 30 0;
#X connect 45 0 30 0;
