#N canvas 1078 217 487 521 10;
#X declare -lib mrpeach;
#X obj 108 43 gemhead;
#X obj 126 108 pix_video;
#X obj 126 160 pix_texture;
#X obj 126 183 rectangle 4 3;
#X msg 187 435 create \, 1;
#X obj 238 31 loadbang;
#X obj 126 132 pix_mean_color;
#X text 317 51 downsample;
#X text 313 77 no interpolation;
#X msg 241 78 quality 0;
#X obj 180 247 color;
#X obj 180 215 gemhead;
#X obj 180 268 square 1;
#X text 256 435 <- click;
#X obj 42 292 import mrpeach;
#X obj 42 339 packOSC;
#X msg 185 396 connect 127.0.0.1 57120;
#X obj 42 376 udpsend;
#X msg 42 316 send /col \$1 \$2 \$3;
#X text 342 395 <- click;
#X obj 187 460 gemwin 30;
#X msg 238 52 dimen 8 8;
#X connect 0 0 1 0;
#X connect 1 0 6 0;
#X connect 2 0 3 0;
#X connect 4 0 20 0;
#X connect 5 0 21 0;
#X connect 5 0 9 0;
#X connect 6 0 2 0;
#X connect 6 1 10 1;
#X connect 6 1 18 0;
#X connect 9 0 2 0;
#X connect 10 0 12 0;
#X connect 11 0 10 0;
#X connect 15 0 17 0;
#X connect 16 0 17 0;
#X connect 18 0 15 0;
#X connect 21 0 1 0;
