#N canvas 883 76 545 626 10;
#X obj 128 42 gemhead;
#X obj 128 324 pix_texture;
#X obj 128 374 rectangle 4 3;
#X msg 347 8 dimen 640 480;
#X obj 128 192 pix_duotone;
#X obj 128 94 pix_video;
#X floatatom 355 199 5 0 0 0 - - -;
#X msg 354 219 \$1 \$1 \$1;
#X obj 128 119 pix_grey;
#X obj 419 161 vsl 15 128 0 1 0 0 empty empty empty 0 -9 0 10 -262144
-1 -1 5180 1;
#X obj 460 173 loadbang;
#X msg 462 194 0.4;
#X msg 348 27 dimen 320 240;
#X obj 97 524 gemwin;
#X msg 348 47 dimen 160 120;
#X msg 348 68 dimen 80 60;
#X text 408 300 threshold;
#X text 354 -14 resolution;
#X msg 97 480 create \, 1;
#X msg 172 480 destroy;
#X text 54 454 to start click 'create';
#X msg 348 89 dimen 40 30;
#X msg 348 110 dimen 20 15;
#X msg 383 427 quality \$1;
#X obj 383 408 tgl 15 0 empty empty empty 0 -6 0 8 -262144 -1 -1 0
1;
#X obj 382 364 loadbang;
#X msg 383 384 0;
#X text 402 406 interpolate;
#X connect 0 0 5 0;
#X connect 1 0 2 0;
#X connect 3 0 5 0;
#X connect 4 0 1 0;
#X connect 5 0 8 0;
#X connect 6 0 7 0;
#X connect 7 0 4 1;
#X connect 8 0 4 0;
#X connect 9 0 6 0;
#X connect 10 0 11 0;
#X connect 11 0 9 0;
#X connect 12 0 5 0;
#X connect 14 0 5 0;
#X connect 15 0 5 0;
#X connect 18 0 13 0;
#X connect 19 0 13 0;
#X connect 21 0 5 0;
#X connect 22 0 5 0;
#X connect 23 0 1 0;
#X connect 24 0 23 0;
#X connect 25 0 26 0;
#X connect 26 0 24 0;
