#N canvas 632 22 556 822 10;
#X text 2 0 duotone;
#X obj 3 781 gemwin;
#X obj 15 308 pix_texture;
#X obj 15 73 gemhead;
#X obj 15 124 pix_video;
#X obj 15 171 pix_grey;
#X msg 42 752 create \, 1;
#X obj 8 745 tgl 15 0 empty empty empty 17 7 0 10 -262144 -1 -1 0 1
;
#X floatatom 276 184 5 0 0 0 - - -;
#X msg 276 204 \$1 \$1 \$1;
#X obj 16 247 pix_duotone;
#X obj 310 29 vsl 15 128 0 1 0 0 empty empty empty 0 -9 0 10 -262144
-1 -1 0 1;
#X msg 128 3 dimen 14 7;
#X msg 200 261 quality 0;
#X msg 138 51 dimen 640 480;
#X obj 14 371 rectangle 8 8;
#X floatatom 229 319 5 0 0 0 - - -;
#X floatatom 269 322 5 0 0 0 - - -;
#X obj 121 546 pix_data;
#X obj 119 466 t b a;
#X obj 139 583 unpack f f f;
#X floatatom 137 614 5 0 0 0 - - -;
#X floatatom 181 615 5 0 0 0 - - -;
#X floatatom 219 616 5 0 0 0 - - -;
#X floatatom 170 459 5 0 0 0 - - -;
#X floatatom 185 508 5 0 0 0 - - -;
#X obj 310 542 pix_data;
#X obj 308 462 t b a;
#X obj 328 576 unpack f f f;
#X floatatom 322 602 5 0 0 0 - - -;
#X floatatom 364 605 5 0 0 0 - - -;
#X floatatom 404 606 5 0 0 0 - - -;
#X floatatom 363 464 5 0 0 0 - - -;
#X floatatom 378 513 5 0 0 0 - - -;
#X obj 161 697 osc~ 400;
#X obj 318 700 osc~ 500;
#X obj 172 751 *~;
#X obj 242 795 dac~;
#X obj 307 758 *~;
#X msg 269 263 quality 1;
#X text 318 318 videoplane width and height;
#X obj 214 455 loadbang;
#X msg 223 477 0.5;
#X text 125 431 track pixel in the middle;
#X obj 424 456 loadbang;
#X text 335 432 track pixel on the right hand side;
#X msg 433 478 0.9;
#X msg 430 507 0.5;
#X connect 2 0 15 0;
#X connect 3 0 4 0;
#X connect 4 0 5 0;
#X connect 5 0 10 0;
#X connect 6 0 1 0;
#X connect 7 0 1 0;
#X connect 8 0 9 0;
#X connect 9 0 10 1;
#X connect 10 0 2 0;
#X connect 10 0 19 0;
#X connect 10 0 27 0;
#X connect 11 0 8 0;
#X connect 12 0 4 0;
#X connect 13 0 2 0;
#X connect 14 0 4 0;
#X connect 16 0 15 1;
#X connect 17 0 15 2;
#X connect 18 1 20 0;
#X connect 19 0 18 0;
#X connect 19 1 18 1;
#X connect 20 0 21 0;
#X connect 20 1 22 0;
#X connect 20 2 23 0;
#X connect 21 0 36 1;
#X connect 24 0 18 2;
#X connect 25 0 18 3;
#X connect 26 1 28 0;
#X connect 27 0 26 0;
#X connect 27 1 26 1;
#X connect 28 0 29 0;
#X connect 28 1 30 0;
#X connect 28 2 31 0;
#X connect 29 0 38 1;
#X connect 32 0 26 2;
#X connect 33 0 26 3;
#X connect 34 0 36 0;
#X connect 35 0 38 0;
#X connect 36 0 37 0;
#X connect 38 0 37 1;
#X connect 39 0 2 0;
#X connect 41 0 42 0;
#X connect 42 0 24 0;
#X connect 42 0 25 0;
#X connect 44 0 46 0;
#X connect 44 0 47 0;
#X connect 46 0 32 0;
#X connect 47 0 33 0;
