#N canvas 522 61 734 701 16;
#X floatatom 121 142 5 0 0 0 - - -;
#X msg 164 22 devices;
#X obj 115 192 t f f f f f f f f;
#X obj 454 239 & 1;
#X obj 454 270 == 1;
#X obj 454 304 tgl 15 0 empty empty empty 17 7 0 10 -262144 -1 -1 0
1;
#X obj 388 239 & 2;
#X obj 388 270 == 2;
#X obj 388 304 tgl 15 0 empty empty empty 17 7 0 10 -262144 -1 -1 0
1;
#X obj 322 238 & 4;
#X obj 322 270 == 4;
#X obj 322 304 tgl 15 0 empty empty empty 17 7 0 10 -262144 -1 -1 0
1;
#X obj 121 76 comport 2 57600;
#X msg 315 59 open 2;
#X msg 319 88 close;
#X obj 190 239 & 16;
#X obj 190 271 == 16;
#X obj 190 305 tgl 15 0 empty empty empty 17 7 0 10 -262144 -1 -1 0
1;
#X obj 124 306 tgl 15 0 empty empty empty 17 7 0 10 -262144 -1 -1 0
1;
#X obj 124 240 & 32;
#X obj 124 272 == 32;
#X obj 58 241 & 64;
#X obj 58 273 == 64;
#X obj 256 304 tgl 15 0 empty empty empty 17 7 0 10 -262144 -1 -1 0
1;
#X obj 256 239 & 8;
#X obj 256 270 == 8;
#X obj 58 306 tgl 15 0 empty empty empty 17 7 0 10 -262144 -1 -1 0
1;
#X obj -9 241 & 128;
#X obj -9 273 == 128;
#X obj -9 306 tgl 15 0 empty empty empty 17 7 0 10 -262144 -1 -1 0
1;
#X obj 195 111 print;
#X obj 257 667 dac~;
#X obj 269 635 *~ 0.2;
#X obj -14 565 *~;
#X obj -10 537 line~;
#X obj -9 327 change;
#X obj 58 327 change;
#X obj 124 327 change;
#X obj 190 327 change;
#X obj 256 327 change;
#X obj 322 327 change;
#X obj 388 327 change;
#X obj 454 327 change;
#X obj 71 566 *~;
#X obj 75 538 line~;
#X obj 162 566 *~;
#X obj 166 538 line~;
#X obj 249 565 *~;
#X obj 253 537 line~;
#X obj 334 568 *~;
#X obj 338 540 line~;
#X obj 419 571 *~;
#X obj 423 543 line~;
#X obj 512 571 *~;
#X obj 516 543 line~;
#X msg -11 511 \$1 10;
#X msg 74 512 \$1 10;
#X msg 165 512 \$1 10;
#X msg 252 511 \$1 10;
#X msg 337 514 \$1 10;
#X msg 422 517 \$1 10;
#X msg 515 517 \$1 10;
#X obj 121 110 change;
#X obj 608 573 *~;
#X obj 612 545 line~;
#X msg 611 519 \$1 10;
#X obj 608 420 mtof;
#X floatatom 607 394 5 0 0 0 - - -;
#X floatatom 604 450 5 0 0 0 - - -;
#X obj 511 416 mtof;
#X floatatom 510 390 5 0 0 0 - - -;
#X floatatom 507 446 5 0 0 0 - - -;
#X obj 419 419 mtof;
#X floatatom 418 393 5 0 0 0 - - -;
#X floatatom 415 449 5 0 0 0 - - -;
#X obj 329 419 mtof;
#X floatatom 328 393 5 0 0 0 - - -;
#X floatatom 325 449 5 0 0 0 - - -;
#X obj 246 416 mtof;
#X floatatom 245 390 5 0 0 0 - - -;
#X floatatom 242 446 5 0 0 0 - - -;
#X obj 160 420 mtof;
#X floatatom 159 394 5 0 0 0 - - -;
#X floatatom 156 450 5 0 0 0 - - -;
#X obj 72 420 mtof;
#X floatatom 71 394 5 0 0 0 - - -;
#X floatatom 68 450 5 0 0 0 - - -;
#X obj -19 420 mtof;
#X floatatom -20 394 5 0 0 0 - - -;
#X floatatom -23 450 5 0 0 0 - - -;
#X obj -1 69 timer;
#X obj -1 42 t b b;
#X floatatom -1 95 5 0 0 0 - - -;
#X obj -22 478 osc~ 500;
#X obj 65 477 osc~ 600;
#X obj 153 477 osc~ 700;
#X obj 240 477 osc~ 800;
#X obj 326 476 osc~ 900;
#X obj 412 476 osc~ 1000;
#X obj 508 476 osc~ 1100;
#X obj 604 476 osc~ 1200;
#X connect 0 0 2 0;
#X connect 1 0 12 0;
#X connect 2 0 27 0;
#X connect 2 1 21 0;
#X connect 2 2 19 0;
#X connect 2 3 15 0;
#X connect 2 4 24 0;
#X connect 2 5 9 0;
#X connect 2 6 6 0;
#X connect 2 7 3 0;
#X connect 3 0 4 0;
#X connect 4 0 5 0;
#X connect 5 0 42 0;
#X connect 6 0 7 0;
#X connect 7 0 8 0;
#X connect 8 0 41 0;
#X connect 9 0 10 0;
#X connect 10 0 11 0;
#X connect 11 0 40 0;
#X connect 12 0 62 0;
#X connect 12 0 91 0;
#X connect 12 0 30 0;
#X connect 13 0 12 0;
#X connect 14 0 12 0;
#X connect 15 0 16 0;
#X connect 16 0 17 0;
#X connect 17 0 38 0;
#X connect 18 0 37 0;
#X connect 19 0 20 0;
#X connect 20 0 18 0;
#X connect 21 0 22 0;
#X connect 22 0 26 0;
#X connect 23 0 39 0;
#X connect 24 0 25 0;
#X connect 25 0 23 0;
#X connect 26 0 36 0;
#X connect 27 0 28 0;
#X connect 28 0 29 0;
#X connect 29 0 35 0;
#X connect 32 0 31 0;
#X connect 32 0 31 1;
#X connect 33 0 32 0;
#X connect 34 0 33 1;
#X connect 35 0 55 0;
#X connect 36 0 56 0;
#X connect 37 0 57 0;
#X connect 38 0 58 0;
#X connect 39 0 59 0;
#X connect 40 0 60 0;
#X connect 41 0 61 0;
#X connect 42 0 65 0;
#X connect 43 0 32 0;
#X connect 44 0 43 1;
#X connect 45 0 32 0;
#X connect 46 0 45 1;
#X connect 47 0 32 0;
#X connect 48 0 47 1;
#X connect 49 0 32 0;
#X connect 50 0 49 1;
#X connect 51 0 32 0;
#X connect 52 0 51 1;
#X connect 53 0 32 0;
#X connect 54 0 53 1;
#X connect 55 0 34 0;
#X connect 56 0 44 0;
#X connect 57 0 46 0;
#X connect 58 0 48 0;
#X connect 59 0 50 0;
#X connect 60 0 52 0;
#X connect 61 0 54 0;
#X connect 62 0 0 0;
#X connect 63 0 32 0;
#X connect 64 0 63 1;
#X connect 65 0 64 0;
#X connect 66 0 68 0;
#X connect 67 0 66 0;
#X connect 68 0 100 0;
#X connect 69 0 71 0;
#X connect 70 0 69 0;
#X connect 71 0 99 0;
#X connect 72 0 74 0;
#X connect 73 0 72 0;
#X connect 74 0 98 0;
#X connect 75 0 77 0;
#X connect 76 0 75 0;
#X connect 77 0 97 0;
#X connect 78 0 80 0;
#X connect 79 0 78 0;
#X connect 80 0 96 0;
#X connect 81 0 83 0;
#X connect 82 0 81 0;
#X connect 83 0 95 0;
#X connect 84 0 86 0;
#X connect 85 0 84 0;
#X connect 86 0 94 0;
#X connect 87 0 89 0;
#X connect 88 0 87 0;
#X connect 89 0 93 0;
#X connect 90 0 92 0;
#X connect 91 0 90 0;
#X connect 91 1 90 1;
#X connect 93 0 33 0;
#X connect 94 0 43 0;
#X connect 95 0 45 0;
#X connect 96 0 47 0;
#X connect 97 0 49 0;
#X connect 98 0 51 0;
#X connect 99 0 53 0;
#X connect 100 0 63 0;
