#N canvas 535 22 1039 763 24;
#X floatatom 85 117 5 0 0 0 - - -;
#X floatatom 158 164 5 0 0 0 - - -;
#X floatatom 53 298 5 0 0 0 - - -;
#X obj 233 401 sel 0 1 2 3 4 5 6 7;
#X obj 226 466 bng 15 250 50 0 empty empty empty 17 7 0 10 -262144
-1 -1;
#X obj 257 462 bng 15 250 50 0 empty empty empty 17 7 0 10 -262144
-1 -1;
#X obj 285 466 bng 15 250 50 0 empty empty empty 17 7 0 10 -262144
-1 -1;
#X obj 313 465 bng 15 250 50 0 empty empty empty 17 7 0 10 -262144
-1 -1;
#X obj 344 460 bng 15 250 50 0 empty empty empty 17 7 0 10 -262144
-1 -1;
#X obj 372 460 bng 15 250 50 0 empty empty empty 17 7 0 10 -262144
-1 -1;
#X obj 406 460 bng 15 250 50 0 empty empty empty 17 7 0 10 -262144
-1 -1;
#X obj 430 462 bng 15 250 50 0 empty empty empty 17 7 0 10 -262144
-1 -1;
#X obj 43 690 dac~;
#X obj 217 593 osc~;
#X msg 211 512 500;
#X msg 259 511 600;
#X msg 307 511 700;
#X msg 357 512 800;
#X obj 25 423 * 100;
#X obj 21 462 + 500;
#X floatatom 21 500 5 0 0 0 - - -;
#X obj 21 583 osc~;
#X obj 86 70 line;
#X obj 451 254 loadbang;
#X obj 32 625 *~ 0.1;
#X text 143 693 turn on dsp to hear sound;
#X text 218 160 <- try different numbers here - sort of presets for
patterns;
#X text 226 33 <- click to start ramp/counting automatically;
#X text 163 114 <- or change here manually by click and drag;
#X text 253 374 same calculation but longwinded;
#X text 1 393 freq calculation;
#X msg 85 30 0 \, 50 2000;
#X obj 78 230 |;
#X obj 131 230 &;
#X msg 451 282 11;
#X text 184 236 also try with 'and';
#X connect 0 0 32 0;
#X connect 1 0 32 1;
#X connect 2 0 3 0;
#X connect 2 0 18 0;
#X connect 3 0 4 0;
#X connect 3 1 5 0;
#X connect 3 2 6 0;
#X connect 3 3 7 0;
#X connect 3 4 8 0;
#X connect 3 5 9 0;
#X connect 3 6 10 0;
#X connect 3 7 11 0;
#X connect 4 0 14 0;
#X connect 5 0 15 0;
#X connect 6 0 16 0;
#X connect 7 0 17 0;
#X connect 14 0 13 0;
#X connect 15 0 13 0;
#X connect 16 0 13 0;
#X connect 17 0 13 0;
#X connect 18 0 19 0;
#X connect 19 0 20 0;
#X connect 20 0 21 0;
#X connect 21 0 24 0;
#X connect 22 0 0 0;
#X connect 23 0 34 0;
#X connect 24 0 12 0;
#X connect 24 0 12 1;
#X connect 31 0 22 0;
#X connect 32 0 2 0;
#X connect 34 0 1 0;
