#N canvas 757 74 592 737 16;
#X msg 186 54 devices;
#X obj 194 135 print;
#X obj 149 211 t f f f f f f f f;
#X obj 427 299 & 1;
#X obj 427 329 == 1;
#X obj 427 364 tgl 15 0 empty empty empty 17 7 0 10 -262144 -1 -1 1
1;
#X obj 375 363 tgl 15 0 empty empty empty 17 7 0 10 -262144 -1 -1 1
1;
#X obj 324 362 tgl 15 0 empty empty empty 17 7 0 10 -262144 -1 -1 0
1;
#X obj 275 361 tgl 15 0 empty empty empty 17 7 0 10 -262144 -1 -1 0
1;
#X obj 216 360 tgl 15 0 empty empty empty 17 7 0 10 -262144 -1 -1 1
1;
#X obj 155 359 tgl 15 0 empty empty empty 17 7 0 10 -262144 -1 -1 0
1;
#X obj 95 358 tgl 15 0 empty empty empty 17 7 0 10 -262144 -1 -1 1
1;
#X obj 26 358 tgl 15 0 empty empty empty 17 7 0 10 -262144 -1 -1 0
1;
#X obj 375 328 == 2;
#X obj 375 298 & 2;
#X obj 324 297 & 4;
#X obj 324 327 == 4;
#X obj 275 296 & 8;
#X obj 275 326 == 8;
#X obj 216 295 & 16;
#X obj 216 325 == 16;
#X obj 155 294 & 32;
#X obj 95 293 & 64;
#X obj 95 323 == 64;
#X obj 26 293 & 128;
#X obj 26 323 == 128;
#X obj 155 324 == 32;
#X floatatom 176 167 5 0 0 0 - - -;
#X obj 149 97 comport 2 9600;
#X obj 60 627 dac~;
#X obj 57 589 *~;
#X obj 188 586 line~;
#X obj 169 419 sel 0 1;
#X msg 116 467 1 50;
#X obj 58 540 osc~ 500;
#X msg 208 464 0 100;
#X connect 0 0 28 0;
#X connect 2 0 24 0;
#X connect 2 1 22 0;
#X connect 2 2 21 0;
#X connect 2 3 19 0;
#X connect 2 4 17 0;
#X connect 2 5 15 0;
#X connect 2 6 14 0;
#X connect 2 7 3 0;
#X connect 3 0 4 0;
#X connect 4 0 5 0;
#X connect 9 0 32 0;
#X connect 13 0 6 0;
#X connect 14 0 13 0;
#X connect 15 0 16 0;
#X connect 16 0 7 0;
#X connect 17 0 18 0;
#X connect 18 0 8 0;
#X connect 19 0 20 0;
#X connect 20 0 9 0;
#X connect 21 0 26 0;
#X connect 22 0 23 0;
#X connect 23 0 11 0;
#X connect 24 0 25 0;
#X connect 25 0 12 0;
#X connect 26 0 10 0;
#X connect 28 0 1 0;
#X connect 28 0 2 0;
#X connect 28 0 27 0;
#X connect 30 0 29 0;
#X connect 30 0 29 1;
#X connect 31 0 30 1;
#X connect 32 0 33 0;
#X connect 32 1 35 0;
#X connect 33 0 31 0;
#X connect 34 0 30 0;
#X connect 35 0 31 0;
